<svg width="16" height="13" viewBox="0 0 16 13" fill="none" xmlns="http://www.w3.org/2000/svg">
<path fill-rule="evenodd" clip-rule="evenodd" d="M5.42863 8.54555C4.95547 7.9885 4.66492 7.28 4.66492 6.5C4.66492 4.706 6.15836 3.25 7.997 3.25C8.79737 3.25 9.52376 3.53275 10.0949 3.99425L11.3591 2.7612C10.3988 2.2815 9.27852 1.95 8.00367 1.95C3.92853 1.95 1.32284 5.43075 0.778375 6.2296C1.13091 6.7717 2.36378 8.52215 4.18576 9.7578L5.42863 8.54555ZM9.62306 4.45445C9.17456 4.10995 8.61344 3.9 7.997 3.9C6.52622 3.9 5.33133 5.0648 5.33133 6.5C5.33133 7.09995 5.54725 7.64725 5.90045 8.08535L9.62306 4.45445ZM14.6612 0.45955L1.80466 13L1.33283 12.5404L3.69728 10.2343C2.16585 9.18645 0.875672 7.709 0 6.2244C1.6114 3.55745 4.62693 1.3 8.00367 1.3C9.37982 1.3 10.6833 1.6679 11.8569 2.27565L14.19 0L14.6612 0.45955ZM13.0185 2.9809L12.5293 3.458C14.0194 4.51035 14.9471 5.8006 15.2356 6.2361C14.7431 7.08305 12.2061 11.05 8.00367 11.05C7.05402 11.05 6.17169 10.8108 5.37065 10.4403L4.87217 10.9265C5.85514 11.4088 6.90941 11.7 8.00367 11.7C11.5183 11.7 14.5066 9.0961 16 6.2166C15.2756 4.98745 14.2473 3.85255 13.0185 2.9809ZM10.6627 6.5C10.6627 6.1399 10.5874 5.7967 10.4514 5.4847L10.9406 5.0076C11.1811 5.4561 11.3291 5.9592 11.3291 6.5C11.3291 8.29335 9.83631 9.75 7.997 9.75C7.44254 9.75 6.92807 9.60505 6.46757 9.37105L6.95672 8.8933C7.2766 9.0259 7.62781 9.1 7.997 9.1C9.46845 9.1 10.6627 7.9352 10.6627 6.5Z" fill="white"/>
</svg>
